<mxfile host="app.diagrams.net" modified="2024-03-22T20:56:28.537Z" agent="Mozilla/5.0 (X11; Linux x86_64; rv:109.0) Gecko/20100101 Firefox/115.0" etag="GvQBJjqx8fowANgxYsEl" version="24.0.7" type="device">
  <diagram name="Página-1" id="QNrzKvdkZUiNf-F4cxl6">
    <mxGraphModel dx="1434" dy="728" grid="1" gridSize="10" guides="1" tooltips="1" connect="1" arrows="1" fold="1" page="1" pageScale="1" pageWidth="1169" pageHeight="827" math="0" shadow="0">
      <root>
        <mxCell id="0" />
        <mxCell id="1" parent="0" />
        <mxCell id="IdGpFHFMFsSPEDV2ob-z-1" value="&lt;div style=&quot;color: #000000;background-color: #ffffff;font-family: &#39;Droid Sans Mono&#39;, &#39;monospace&#39;, monospace;font-weight: normal;font-size: 14px;line-height: 19px;white-space: pre;&quot;&gt;&lt;div&gt;&lt;span style=&quot;color: #a31515;&quot;&gt;quay.io/centos7/httpd-24-centos7:centos7&lt;/span&gt;&lt;/div&gt;&lt;/div&gt;" style="rounded=0;whiteSpace=wrap;html=1;fillColor=#fff2cc;strokeColor=#d6b656;verticalAlign=bottom;" parent="1" vertex="1">
          <mxGeometry x="240" y="210" width="350" height="380" as="geometry" />
        </mxCell>
        <mxCell id="IdGpFHFMFsSPEDV2ob-z-2" value="&lt;div style=&quot;font-size: 22px;&quot;&gt;Capa 1&lt;/div&gt;&lt;div style=&quot;font-size: 22px;&quot;&gt;hash: c61d16cfe03e&lt;/div&gt;" style="rounded=0;whiteSpace=wrap;html=1;align=center;fontSize=22;" parent="1" vertex="1">
          <mxGeometry x="270" y="450" width="290" height="100" as="geometry" />
        </mxCell>
        <mxCell id="IdGpFHFMFsSPEDV2ob-z-3" value="&lt;div style=&quot;font-size: 22px;&quot;&gt;Capa 2&lt;br style=&quot;font-size: 22px;&quot;&gt;&lt;/div&gt;&lt;div style=&quot;font-size: 22px;&quot;&gt;hash: 06c7e4737942&lt;/div&gt;" style="rounded=0;whiteSpace=wrap;html=1;align=center;fontSize=22;" parent="1" vertex="1">
          <mxGeometry x="270" y="340" width="290" height="104" as="geometry" />
        </mxCell>
        <mxCell id="IdGpFHFMFsSPEDV2ob-z-7" value="&lt;div style=&quot;font-size: 22px;&quot;&gt;Capa 3&lt;br style=&quot;font-size: 22px;&quot;&gt;&lt;/div&gt;&lt;div style=&quot;font-size: 22px;&quot;&gt;hash: 8f001c8d7e00&lt;/div&gt;" style="rounded=0;whiteSpace=wrap;html=1;align=center;fontSize=22;" parent="1" vertex="1">
          <mxGeometry x="270" y="230" width="290" height="104" as="geometry" />
        </mxCell>
        <mxCell id="PKFml7vDjdIAG618vLzL-9" value="" style="rounded=0;orthogonalLoop=1;jettySize=auto;html=1;startArrow=classic;startFill=1;strokeWidth=3;entryX=0.477;entryY=-0.011;entryDx=0;entryDy=0;entryPerimeter=0;" edge="1" parent="1" source="PKFml7vDjdIAG618vLzL-1" target="IdGpFHFMFsSPEDV2ob-z-1">
          <mxGeometry relative="1" as="geometry">
            <mxPoint x="170" y="230" as="targetPoint" />
          </mxGeometry>
        </mxCell>
        <mxCell id="PKFml7vDjdIAG618vLzL-1" value="&lt;div&gt;&lt;b&gt;&lt;font style=&quot;font-size: 17px;&quot;&gt;Contenedor 1&lt;/font&gt;&lt;/b&gt;&lt;/div&gt;&lt;div&gt;&lt;font style=&quot;font-size: 14px;&quot;&gt;Capa del contenedor de lectura y escritura&lt;/font&gt;&lt;br&gt;&lt;/div&gt;" style="rounded=0;whiteSpace=wrap;html=1;fillColor=#ffe6cc;strokeColor=#d79b00;" vertex="1" parent="1">
          <mxGeometry x="60" y="90" width="220" height="60" as="geometry" />
        </mxCell>
        <mxCell id="PKFml7vDjdIAG618vLzL-5" value="" style="edgeStyle=orthogonalEdgeStyle;rounded=0;orthogonalLoop=1;jettySize=auto;html=1;startArrow=classic;startFill=1;strokeWidth=3;" edge="1" parent="1" source="PKFml7vDjdIAG618vLzL-3">
          <mxGeometry relative="1" as="geometry">
            <mxPoint x="415" y="210" as="targetPoint" />
          </mxGeometry>
        </mxCell>
        <mxCell id="PKFml7vDjdIAG618vLzL-3" value="&lt;div&gt;&lt;b&gt;&lt;font style=&quot;font-size: 17px;&quot;&gt;Contenedor 2&lt;br&gt;&lt;/font&gt;&lt;/b&gt;&lt;/div&gt;&lt;div&gt;&lt;font style=&quot;font-size: 14px;&quot;&gt;Capa del contenedor de lectura y escritura&lt;/font&gt;&lt;br&gt;&lt;/div&gt;" style="rounded=0;whiteSpace=wrap;html=1;fillColor=#ffe6cc;strokeColor=#d79b00;" vertex="1" parent="1">
          <mxGeometry x="305" y="90" width="220" height="60" as="geometry" />
        </mxCell>
        <mxCell id="PKFml7vDjdIAG618vLzL-7" value="" style="rounded=0;orthogonalLoop=1;jettySize=auto;html=1;startArrow=classic;startFill=1;strokeWidth=3;" edge="1" parent="1" source="PKFml7vDjdIAG618vLzL-4">
          <mxGeometry relative="1" as="geometry">
            <mxPoint x="420" y="210" as="targetPoint" />
          </mxGeometry>
        </mxCell>
        <mxCell id="PKFml7vDjdIAG618vLzL-4" value="&lt;div&gt;&lt;b&gt;&lt;font style=&quot;font-size: 17px;&quot;&gt;Contenedor 3&lt;br&gt;&lt;/font&gt;&lt;/b&gt;&lt;/div&gt;&lt;div&gt;&lt;font style=&quot;font-size: 14px;&quot;&gt;Capa del contenedor de lectura y escritura&lt;/font&gt;&lt;br&gt;&lt;/div&gt;" style="rounded=0;whiteSpace=wrap;html=1;fillColor=#ffe6cc;strokeColor=#d79b00;" vertex="1" parent="1">
          <mxGeometry x="550" y="90" width="220" height="60" as="geometry" />
        </mxCell>
        <mxCell id="PKFml7vDjdIAG618vLzL-10" value="" style="strokeWidth=2;html=1;shape=mxgraph.flowchart.annotation_2;align=left;labelPosition=right;pointerEvents=1;" vertex="1" parent="1">
          <mxGeometry x="200" y="260" width="50" height="260" as="geometry" />
        </mxCell>
        <mxCell id="PKFml7vDjdIAG618vLzL-11" value="&lt;div&gt;&lt;font style=&quot;font-size: 15px;&quot;&gt;Capas de&amp;nbsp;&lt;/font&gt;&lt;/div&gt;&lt;div&gt;&lt;font style=&quot;font-size: 15px;&quot;&gt;sólo lectura&lt;/font&gt;&lt;/div&gt;" style="sketch=0;pointerEvents=1;shadow=0;dashed=0;html=1;strokeColor=none;fillColor=#505050;labelPosition=center;verticalLabelPosition=bottom;verticalAlign=top;outlineConnect=0;align=center;shape=mxgraph.office.security.lock_protected;" vertex="1" parent="1">
          <mxGeometry x="150" y="350" width="38" height="52" as="geometry" />
        </mxCell>
      </root>
    </mxGraphModel>
  </diagram>
</mxfile>
